<mxfile host="app.diagrams.net" modified="2023-04-20T06:11:50.101Z" agent="Mozilla/5.0 (Windows NT 10.0; Win64; x64) AppleWebKit/537.36 (KHTML, like Gecko) Chrome/112.0.0.0 Safari/537.36" etag="ZSnCbze8XcdnZMk1DyWj" version="21.2.1" type="device" pages="2">
  <diagram name="Trang-1" id="znxwd6RsGqyq3BSEkAoy">
    <mxGraphModel dx="1363" dy="1956" grid="1" gridSize="10" guides="1" tooltips="1" connect="1" arrows="1" fold="1" page="1" pageScale="1" pageWidth="827" pageHeight="1169" math="0" shadow="0">
      <root>
        <mxCell id="0" />
        <mxCell id="1" parent="0" />
        <mxCell id="8ejjpvNXacubMNO1q4A--1" value="" style="endArrow=none;html=1;rounded=0;" parent="1" edge="1">
          <mxGeometry width="50" height="50" relative="1" as="geometry">
            <mxPoint x="160" y="200" as="sourcePoint" />
            <mxPoint x="1520" y="200" as="targetPoint" />
          </mxGeometry>
        </mxCell>
        <mxCell id="8ejjpvNXacubMNO1q4A--2" value="" style="endArrow=none;html=1;rounded=0;" parent="1" edge="1">
          <mxGeometry width="50" height="50" relative="1" as="geometry">
            <mxPoint x="320" y="-41.25" as="sourcePoint" />
            <mxPoint x="320" y="990" as="targetPoint" />
          </mxGeometry>
        </mxCell>
        <mxCell id="8ejjpvNXacubMNO1q4A--3" value="" style="endArrow=none;html=1;rounded=0;" parent="1" edge="1">
          <mxGeometry width="50" height="50" relative="1" as="geometry">
            <mxPoint x="160" y="460" as="sourcePoint" />
            <mxPoint x="1520" y="460" as="targetPoint" />
          </mxGeometry>
        </mxCell>
        <mxCell id="8ejjpvNXacubMNO1q4A--4" value="" style="endArrow=none;html=1;rounded=0;" parent="1" edge="1">
          <mxGeometry width="50" height="50" relative="1" as="geometry">
            <mxPoint x="150" y="810" as="sourcePoint" />
            <mxPoint x="1510" y="810" as="targetPoint" />
          </mxGeometry>
        </mxCell>
        <mxCell id="8ejjpvNXacubMNO1q4A--5" value="Bên cần hỗ trợ" style="shape=umlActor;verticalLabelPosition=bottom;verticalAlign=top;html=1;outlineConnect=0;" parent="1" vertex="1">
          <mxGeometry x="220" y="39.889999999999986" width="30" height="60" as="geometry" />
        </mxCell>
        <mxCell id="8ejjpvNXacubMNO1q4A--6" value="Nhân viên phòng CNTT" style="shape=umlActor;verticalLabelPosition=bottom;verticalAlign=top;html=1;outlineConnect=0;" parent="1" vertex="1">
          <mxGeometry x="220" y="240" width="30" height="60" as="geometry" />
        </mxCell>
        <mxCell id="8ejjpvNXacubMNO1q4A--7" value="Adviser" style="shape=umlActor;verticalLabelPosition=bottom;verticalAlign=top;html=1;outlineConnect=0;" parent="1" vertex="1">
          <mxGeometry x="210" y="570" width="30" height="60" as="geometry" />
        </mxCell>
        <mxCell id="8ejjpvNXacubMNO1q4A--8" value="Super" style="shape=umlActor;verticalLabelPosition=bottom;verticalAlign=top;html=1;outlineConnect=0;" parent="1" vertex="1">
          <mxGeometry x="210" y="850" width="30" height="60" as="geometry" />
        </mxCell>
        <mxCell id="8ejjpvNXacubMNO1q4A--11" style="edgeStyle=orthogonalEdgeStyle;rounded=0;orthogonalLoop=1;jettySize=auto;html=1;" parent="1" source="8ejjpvNXacubMNO1q4A--10" edge="1">
          <mxGeometry relative="1" as="geometry">
            <mxPoint x="480" y="69.88999999999999" as="targetPoint" />
          </mxGeometry>
        </mxCell>
        <mxCell id="8ejjpvNXacubMNO1q4A--10" value="Start" style="ellipse;whiteSpace=wrap;html=1;aspect=fixed;" parent="1" vertex="1">
          <mxGeometry x="360" y="39.889999999999986" width="60" height="60" as="geometry" />
        </mxCell>
        <mxCell id="8ejjpvNXacubMNO1q4A--17" style="edgeStyle=orthogonalEdgeStyle;rounded=0;orthogonalLoop=1;jettySize=auto;html=1;" parent="1" source="8ejjpvNXacubMNO1q4A--12" edge="1">
          <mxGeometry relative="1" as="geometry">
            <mxPoint x="850" y="320" as="targetPoint" />
          </mxGeometry>
        </mxCell>
        <mxCell id="8ejjpvNXacubMNO1q4A--12" value="Tiếp nhận yêu cầu&lt;br&gt;" style="rounded=0;whiteSpace=wrap;html=1;" parent="1" vertex="1">
          <mxGeometry x="690" y="290" width="120" height="60" as="geometry" />
        </mxCell>
        <mxCell id="8ejjpvNXacubMNO1q4A--15" style="edgeStyle=orthogonalEdgeStyle;rounded=0;orthogonalLoop=1;jettySize=auto;html=1;" parent="1" source="8ejjpvNXacubMNO1q4A--13" edge="1">
          <mxGeometry relative="1" as="geometry">
            <mxPoint x="741" y="290" as="targetPoint" />
            <Array as="points">
              <mxPoint x="740" y="195" />
            </Array>
          </mxGeometry>
        </mxCell>
        <mxCell id="8ejjpvNXacubMNO1q4A--13" value="Gửi yêu cầu&lt;br&gt;" style="rounded=0;whiteSpace=wrap;html=1;" parent="1" vertex="1">
          <mxGeometry x="690" y="39.889999999999986" width="120" height="60" as="geometry" />
        </mxCell>
        <mxCell id="yESBMZOZ8mYRVSPOy5qF-27" style="edgeStyle=orthogonalEdgeStyle;rounded=0;orthogonalLoop=1;jettySize=auto;html=1;entryX=0.5;entryY=0;entryDx=0;entryDy=0;" parent="1" source="8ejjpvNXacubMNO1q4A--16" target="yESBMZOZ8mYRVSPOy5qF-28" edge="1">
          <mxGeometry relative="1" as="geometry">
            <mxPoint x="749.9999999999995" y="560" as="targetPoint" />
          </mxGeometry>
        </mxCell>
        <mxCell id="8ejjpvNXacubMNO1q4A--16" value="Tạo yêu cầu" style="rounded=0;whiteSpace=wrap;html=1;" parent="1" vertex="1">
          <mxGeometry x="690" y="370" width="120" height="60" as="geometry" />
        </mxCell>
        <mxCell id="yESBMZOZ8mYRVSPOy5qF-2" style="edgeStyle=orthogonalEdgeStyle;rounded=0;orthogonalLoop=1;jettySize=auto;html=1;entryX=0.5;entryY=1;entryDx=0;entryDy=0;" parent="1" source="8ejjpvNXacubMNO1q4A--18" target="yESBMZOZ8mYRVSPOy5qF-4" edge="1">
          <mxGeometry relative="1" as="geometry">
            <mxPoint x="1080" y="280" as="targetPoint" />
          </mxGeometry>
        </mxCell>
        <mxCell id="yESBMZOZ8mYRVSPOy5qF-6" value="Không đồng ý" style="edgeLabel;html=1;align=center;verticalAlign=middle;resizable=0;points=[];" parent="yESBMZOZ8mYRVSPOy5qF-2" vertex="1" connectable="0">
          <mxGeometry x="-0.365" y="2" relative="1" as="geometry">
            <mxPoint as="offset" />
          </mxGeometry>
        </mxCell>
        <mxCell id="yESBMZOZ8mYRVSPOy5qF-19" value="Đồng ý" style="edgeStyle=orthogonalEdgeStyle;rounded=0;orthogonalLoop=1;jettySize=auto;html=1;" parent="1" source="8ejjpvNXacubMNO1q4A--18" edge="1">
          <mxGeometry relative="1" as="geometry">
            <mxPoint x="879.9999999999998" y="500" as="targetPoint" />
          </mxGeometry>
        </mxCell>
        <mxCell id="8ejjpvNXacubMNO1q4A--18" value="Xử lý" style="rhombus;whiteSpace=wrap;html=1;" parent="1" vertex="1">
          <mxGeometry x="850" y="290" width="60" height="60" as="geometry" />
        </mxCell>
        <mxCell id="8ejjpvNXacubMNO1q4A--40" style="edgeStyle=orthogonalEdgeStyle;rounded=0;orthogonalLoop=1;jettySize=auto;html=1;" parent="1" source="8ejjpvNXacubMNO1q4A--20" edge="1">
          <mxGeometry relative="1" as="geometry">
            <mxPoint x="1200" y="69.88999999999999" as="targetPoint" />
          </mxGeometry>
        </mxCell>
        <mxCell id="8ejjpvNXacubMNO1q4A--20" value="Kết thúc" style="rounded=0;whiteSpace=wrap;html=1;" parent="1" vertex="1">
          <mxGeometry x="1020" y="39.889999999999986" width="120" height="60" as="geometry" />
        </mxCell>
        <mxCell id="yESBMZOZ8mYRVSPOy5qF-25" style="edgeStyle=orthogonalEdgeStyle;rounded=0;orthogonalLoop=1;jettySize=auto;html=1;entryX=0.5;entryY=1;entryDx=0;entryDy=0;" parent="1" source="8ejjpvNXacubMNO1q4A--23" target="8ejjpvNXacubMNO1q4A--27" edge="1">
          <mxGeometry relative="1" as="geometry" />
        </mxCell>
        <mxCell id="8ejjpvNXacubMNO1q4A--23" value="Chấp thuận yêu cầu&lt;br&gt;" style="rounded=0;whiteSpace=wrap;html=1;" parent="1" vertex="1">
          <mxGeometry x="820" y="630" width="120" height="60" as="geometry" />
        </mxCell>
        <mxCell id="8ejjpvNXacubMNO1q4A--28" style="edgeStyle=orthogonalEdgeStyle;rounded=0;orthogonalLoop=1;jettySize=auto;html=1;entryX=0.425;entryY=1.029;entryDx=0;entryDy=0;entryPerimeter=0;" parent="1" source="8ejjpvNXacubMNO1q4A--27" target="8ejjpvNXacubMNO1q4A--30" edge="1">
          <mxGeometry relative="1" as="geometry">
            <mxPoint x="1230" y="480" as="targetPoint" />
            <Array as="points">
              <mxPoint x="1221" y="660" />
            </Array>
          </mxGeometry>
        </mxCell>
        <mxCell id="8ejjpvNXacubMNO1q4A--29" value="Gửi tiến trình của yêu cầu" style="edgeLabel;html=1;align=center;verticalAlign=middle;resizable=0;points=[];" parent="8ejjpvNXacubMNO1q4A--28" vertex="1" connectable="0">
          <mxGeometry x="-0.0143" y="-1" relative="1" as="geometry">
            <mxPoint x="-42" y="36" as="offset" />
          </mxGeometry>
        </mxCell>
        <mxCell id="8ejjpvNXacubMNO1q4A--27" value="Tình trạng ?" style="rhombus;whiteSpace=wrap;html=1;direction=south;" parent="1" vertex="1">
          <mxGeometry x="1010" y="630" width="60" height="60" as="geometry" />
        </mxCell>
        <mxCell id="8ejjpvNXacubMNO1q4A--33" style="edgeStyle=orthogonalEdgeStyle;rounded=0;orthogonalLoop=1;jettySize=auto;html=1;entryX=0.5;entryY=1;entryDx=0;entryDy=0;" parent="1" source="8ejjpvNXacubMNO1q4A--30" target="yESBMZOZ8mYRVSPOy5qF-4" edge="1">
          <mxGeometry relative="1" as="geometry">
            <mxPoint x="1080" y="280" as="targetPoint" />
            <Array as="points">
              <mxPoint x="1220" y="320" />
              <mxPoint x="1080" y="320" />
            </Array>
          </mxGeometry>
        </mxCell>
        <mxCell id="8ejjpvNXacubMNO1q4A--34" value="Hoàn thành yêu cầu" style="edgeLabel;html=1;align=center;verticalAlign=middle;resizable=0;points=[];" parent="8ejjpvNXacubMNO1q4A--33" vertex="1" connectable="0">
          <mxGeometry x="-0.7286" relative="1" as="geometry">
            <mxPoint as="offset" />
          </mxGeometry>
        </mxCell>
        <mxCell id="8ejjpvNXacubMNO1q4A--30" value="Tiếp nhận thông tin yêu cầu" style="rounded=0;whiteSpace=wrap;html=1;" parent="1" vertex="1">
          <mxGeometry x="1170" y="370" width="120" height="60" as="geometry" />
        </mxCell>
        <mxCell id="8ejjpvNXacubMNO1q4A--36" value="Chấp thuận yêu cầu" style="rounded=0;whiteSpace=wrap;html=1;" parent="1" vertex="1">
          <mxGeometry x="690" y="720" width="120" height="60" as="geometry" />
        </mxCell>
        <mxCell id="8ejjpvNXacubMNO1q4A--43" value="Không" style="edgeStyle=orthogonalEdgeStyle;rounded=0;orthogonalLoop=1;jettySize=auto;html=1;" parent="1" source="8ejjpvNXacubMNO1q4A--42" edge="1">
          <mxGeometry relative="1" as="geometry">
            <mxPoint x="1320" y="69.88999999999999" as="targetPoint" />
            <Array as="points">
              <mxPoint x="1280" y="69.88999999999999" />
              <mxPoint x="1280" y="69.88999999999999" />
            </Array>
          </mxGeometry>
        </mxCell>
        <mxCell id="8ejjpvNXacubMNO1q4A--45" style="edgeStyle=orthogonalEdgeStyle;rounded=0;orthogonalLoop=1;jettySize=auto;html=1;entryX=0.5;entryY=0;entryDx=0;entryDy=0;" parent="1" source="8ejjpvNXacubMNO1q4A--42" target="8ejjpvNXacubMNO1q4A--13" edge="1">
          <mxGeometry relative="1" as="geometry">
            <mxPoint x="1230" y="-30.110000000000014" as="targetPoint" />
            <Array as="points">
              <mxPoint x="1230" y="-10" />
              <mxPoint x="750" y="-10" />
            </Array>
          </mxGeometry>
        </mxCell>
        <mxCell id="8ejjpvNXacubMNO1q4A--46" value="Đồng ý" style="edgeLabel;html=1;align=center;verticalAlign=middle;resizable=0;points=[];" parent="8ejjpvNXacubMNO1q4A--45" vertex="1" connectable="0">
          <mxGeometry x="-0.2136" y="4" relative="1" as="geometry">
            <mxPoint y="-4" as="offset" />
          </mxGeometry>
        </mxCell>
        <mxCell id="8ejjpvNXacubMNO1q4A--42" value="Bạn có muốn hỏi thêm ?" style="rhombus;whiteSpace=wrap;html=1;" parent="1" vertex="1">
          <mxGeometry x="1200" y="39.889999999999986" width="60" height="60" as="geometry" />
        </mxCell>
        <mxCell id="8ejjpvNXacubMNO1q4A--44" value="Gửi thông báo và đánh giá&lt;br&gt;" style="rounded=0;whiteSpace=wrap;html=1;" parent="1" vertex="1">
          <mxGeometry x="1320.5" y="39.889999999999986" width="120" height="60" as="geometry" />
        </mxCell>
        <mxCell id="8ejjpvNXacubMNO1q4A--48" value="Danh sách yêu cầu" style="rounded=0;whiteSpace=wrap;html=1;" parent="1" vertex="1">
          <mxGeometry x="690" y="850" width="120" height="60" as="geometry" />
        </mxCell>
        <mxCell id="SxOJgfca2eMA9qQSJYHK-4" value="Đăng nhập" style="rounded=0;whiteSpace=wrap;html=1;" parent="1" vertex="1">
          <mxGeometry x="480" y="39.889999999999986" width="120" height="60" as="geometry" />
        </mxCell>
        <mxCell id="SxOJgfca2eMA9qQSJYHK-5" style="edgeStyle=orthogonalEdgeStyle;rounded=0;orthogonalLoop=1;jettySize=auto;html=1;entryX=0;entryY=0.5;entryDx=0;entryDy=0;" parent="1" target="8ejjpvNXacubMNO1q4A--13" edge="1">
          <mxGeometry relative="1" as="geometry">
            <mxPoint x="660" y="69.05999999999997" as="targetPoint" />
            <mxPoint x="600" y="69.05999999999997" as="sourcePoint" />
          </mxGeometry>
        </mxCell>
        <mxCell id="yESBMZOZ8mYRVSPOy5qF-5" style="edgeStyle=orthogonalEdgeStyle;rounded=0;orthogonalLoop=1;jettySize=auto;html=1;entryX=0.5;entryY=1;entryDx=0;entryDy=0;" parent="1" source="yESBMZOZ8mYRVSPOy5qF-4" target="8ejjpvNXacubMNO1q4A--20" edge="1">
          <mxGeometry relative="1" as="geometry" />
        </mxCell>
        <mxCell id="yESBMZOZ8mYRVSPOy5qF-4" value="Gửi thông báo&lt;br&gt;Email&lt;br&gt;Web App" style="rhombus;whiteSpace=wrap;html=1;" parent="1" vertex="1">
          <mxGeometry x="1040" y="210" width="80" height="80" as="geometry" />
        </mxCell>
        <mxCell id="yESBMZOZ8mYRVSPOy5qF-8" value="" style="endArrow=classic;html=1;rounded=0;exitX=1;exitY=0.5;exitDx=0;exitDy=0;entryX=0.915;entryY=1.029;entryDx=0;entryDy=0;entryPerimeter=0;" parent="1" source="8ejjpvNXacubMNO1q4A--36" target="8ejjpvNXacubMNO1q4A--30" edge="1">
          <mxGeometry width="50" height="50" relative="1" as="geometry">
            <mxPoint x="880" y="390" as="sourcePoint" />
            <mxPoint x="930" y="340" as="targetPoint" />
            <Array as="points">
              <mxPoint x="1240" y="750" />
              <mxPoint x="1280" y="750" />
              <mxPoint x="1280" y="600" />
            </Array>
          </mxGeometry>
        </mxCell>
        <mxCell id="yESBMZOZ8mYRVSPOy5qF-9" value="Gửi tiến trình yêu cầu" style="edgeLabel;html=1;align=center;verticalAlign=middle;resizable=0;points=[];" parent="yESBMZOZ8mYRVSPOy5qF-8" vertex="1" connectable="0">
          <mxGeometry x="0.1947" y="2" relative="1" as="geometry">
            <mxPoint as="offset" />
          </mxGeometry>
        </mxCell>
        <mxCell id="yESBMZOZ8mYRVSPOy5qF-10" style="edgeStyle=orthogonalEdgeStyle;rounded=0;orthogonalLoop=1;jettySize=auto;html=1;" parent="1" source="yESBMZOZ8mYRVSPOy5qF-11" edge="1">
          <mxGeometry relative="1" as="geometry">
            <mxPoint x="480" y="320" as="targetPoint" />
          </mxGeometry>
        </mxCell>
        <mxCell id="yESBMZOZ8mYRVSPOy5qF-11" value="Start" style="ellipse;whiteSpace=wrap;html=1;aspect=fixed;" parent="1" vertex="1">
          <mxGeometry x="360" y="290" width="60" height="60" as="geometry" />
        </mxCell>
        <mxCell id="yESBMZOZ8mYRVSPOy5qF-16" style="edgeStyle=orthogonalEdgeStyle;rounded=0;orthogonalLoop=1;jettySize=auto;html=1;entryX=0;entryY=0.5;entryDx=0;entryDy=0;" parent="1" source="yESBMZOZ8mYRVSPOy5qF-12" target="8ejjpvNXacubMNO1q4A--12" edge="1">
          <mxGeometry relative="1" as="geometry" />
        </mxCell>
        <mxCell id="yESBMZOZ8mYRVSPOy5qF-17" style="edgeStyle=orthogonalEdgeStyle;rounded=0;orthogonalLoop=1;jettySize=auto;html=1;entryX=0;entryY=0.5;entryDx=0;entryDy=0;" parent="1" source="yESBMZOZ8mYRVSPOy5qF-12" target="8ejjpvNXacubMNO1q4A--16" edge="1">
          <mxGeometry relative="1" as="geometry">
            <Array as="points">
              <mxPoint x="540" y="400" />
            </Array>
          </mxGeometry>
        </mxCell>
        <mxCell id="yESBMZOZ8mYRVSPOy5qF-12" value="Đăng nhập" style="rounded=0;whiteSpace=wrap;html=1;" parent="1" vertex="1">
          <mxGeometry x="480" y="290" width="120" height="60" as="geometry" />
        </mxCell>
        <mxCell id="yESBMZOZ8mYRVSPOy5qF-13" style="edgeStyle=orthogonalEdgeStyle;rounded=0;orthogonalLoop=1;jettySize=auto;html=1;" parent="1" source="yESBMZOZ8mYRVSPOy5qF-14" edge="1">
          <mxGeometry relative="1" as="geometry">
            <mxPoint x="480" y="600" as="targetPoint" />
          </mxGeometry>
        </mxCell>
        <mxCell id="yESBMZOZ8mYRVSPOy5qF-14" value="Start" style="ellipse;whiteSpace=wrap;html=1;aspect=fixed;" parent="1" vertex="1">
          <mxGeometry x="360" y="570" width="60" height="60" as="geometry" />
        </mxCell>
        <mxCell id="yESBMZOZ8mYRVSPOy5qF-15" value="Đăng nhập" style="rounded=0;whiteSpace=wrap;html=1;" parent="1" vertex="1">
          <mxGeometry x="480" y="570" width="120" height="60" as="geometry" />
        </mxCell>
        <mxCell id="yESBMZOZ8mYRVSPOy5qF-24" style="edgeStyle=orthogonalEdgeStyle;rounded=0;orthogonalLoop=1;jettySize=auto;html=1;entryX=0.5;entryY=0;entryDx=0;entryDy=0;" parent="1" source="yESBMZOZ8mYRVSPOy5qF-20" target="8ejjpvNXacubMNO1q4A--23" edge="1">
          <mxGeometry relative="1" as="geometry" />
        </mxCell>
        <mxCell id="yESBMZOZ8mYRVSPOy5qF-20" value="Gửi thông báo&lt;br&gt;Email&lt;br&gt;Web App" style="rhombus;whiteSpace=wrap;html=1;" parent="1" vertex="1">
          <mxGeometry x="840" y="500" width="80" height="80" as="geometry" />
        </mxCell>
        <mxCell id="yESBMZOZ8mYRVSPOy5qF-31" style="edgeStyle=orthogonalEdgeStyle;rounded=0;orthogonalLoop=1;jettySize=auto;html=1;entryX=0.5;entryY=0;entryDx=0;entryDy=0;" parent="1" source="yESBMZOZ8mYRVSPOy5qF-28" target="8ejjpvNXacubMNO1q4A--36" edge="1">
          <mxGeometry relative="1" as="geometry" />
        </mxCell>
        <mxCell id="yESBMZOZ8mYRVSPOy5qF-28" value="Gửi thông báo&lt;br&gt;Email&lt;br&gt;Web App" style="rhombus;whiteSpace=wrap;html=1;" parent="1" vertex="1">
          <mxGeometry x="710" y="560" width="80" height="80" as="geometry" />
        </mxCell>
      </root>
    </mxGraphModel>
  </diagram>
  <diagram id="dB17NemPPDJqOZFDPHjH" name="Trang-2">
    <mxGraphModel dx="793" dy="605" grid="1" gridSize="10" guides="1" tooltips="1" connect="1" arrows="1" fold="1" page="1" pageScale="1" pageWidth="827" pageHeight="1169" math="0" shadow="0">
      <root>
        <mxCell id="0" />
        <mxCell id="1" parent="0" />
      </root>
    </mxGraphModel>
  </diagram>
</mxfile>
